<?xml version="1.0" standalone="no"?>
<!DOCTYPE svg PUBLIC "-//W3C//DTD SVG 20010904//EN"
 "http://www.w3.org/TR/2001/REC-SVG-20010904/DTD/svg10.dtd">
<svg version="1.0" xmlns="http://www.w3.org/2000/svg"
 width="128.000000pt" height="128.000000pt" viewBox="0 0 128.000000 128.000000"
 preserveAspectRatio="xMidYMid meet">
<metadata>
Created by potrace 1.16, written by Peter Selinger 2001-2019
</metadata>
<g transform="translate(0.000000,128.000000) scale(0.100000,-0.100000)"
fill="#000000" stroke="none">
<path d="M531 1260 c-111 -41 -202 -123 -254 -230 l-32 -65 -3 -375 c-3 -420
-2 -426 67 -503 51 -57 120 -87 200 -87 97 0 138 16 201 80 47 47 61 70 93
155 33 88 51 118 150 246 151 195 162 220 162 374 0 109 -3 125 -27 178 -38
80 -123 167 -206 208 -63 31 -75 34 -182 36 -95 3 -124 0 -169 -17z m234 -75
c97 -16 207 -110 244 -211 14 -37 21 -78 21 -127 0 -95 -25 -147 -136 -290
-114 -145 -136 -181 -178 -291 -43 -109 -82 -153 -152 -171 -89 -22 -172 15
-217 98 -22 41 -22 49 -22 377 0 326 1 336 23 392 30 75 108 160 177 194 53
25 140 44 180 38 11 -2 38 -6 60 -9z"/>
<path d="M573 1014 c-24 -14 -54 -44 -68 -68 l-25 -43 2 -289 3 -289 35 0 35
0 3 102 3 101 53 30 c71 40 108 85 104 126 -2 26 -8 32 -31 34 -22 3 -37 -6
-75 -45 l-47 -48 -3 85 c-5 126 4 168 43 207 71 71 175 25 190 -83 10 -73 11
-76 47 -72 l33 3 3 68 c3 59 -1 75 -23 113 -37 63 -95 94 -176 94 -51 0 -73
-5 -106 -26z"/>
</g>
</svg>
