<?xml version="1.0" standalone="no"?>
<!DOCTYPE svg PUBLIC "-//W3C//DTD SVG 20010904//EN"
 "http://www.w3.org/TR/2001/REC-SVG-20010904/DTD/svg10.dtd">
<svg version="1.0" xmlns="http://www.w3.org/2000/svg"
 width="128.000000pt" height="128.000000pt" viewBox="0 0 128.000000 128.000000"
 preserveAspectRatio="xMidYMid meet">
<metadata>
Created by potrace 1.16, written by Peter Selinger 2001-2019
</metadata>
<g transform="translate(0.000000,128.000000) scale(0.100000,-0.100000)"
fill="#000000" stroke="none">
<path d="M555 1186 c-41 -18 -92 -77 -104 -123 -14 -49 -14 -417 -1 -465 30
-105 160 -167 267 -127 42 15 102 79 113 119 5 19 10 131 10 249 0 199 -2 218
-21 259 -32 65 -95 102 -173 102 -34 -1 -75 -7 -91 -14z"/>
<path d="M296 727 c-16 -12 -18 -25 -14 -98 5 -98 34 -165 98 -229 40 -40 126
-90 155 -90 8 0 24 -9 35 -20 17 -17 20 -33 20 -103 0 -90 8 -107 50 -107 42
0 50 17 50 107 0 70 3 86 20 103 11 11 27 20 35 20 29 0 115 50 155 90 64 64
93 131 98 229 4 73 2 86 -14 98 -42 31 -84 3 -84 -56 0 -148 -118 -271 -260
-271 -142 0 -260 123 -260 271 0 59 -42 87 -84 56z"/>
</g>
</svg>
